HIERARCHY
ROOT hip
{
	OFFSET 0.000000 0.000000 0.000000 
	CHANNELS 6 Xposition Yposition Zposition Xrotation Zrotation Yrotation
	JOINT abdomen
	{
		OFFSET 0.000000 3.402643 0.000000 
		CHANNELS 3 Xrotation Zrotation Yrotation
		JOINT chest
		{
			OFFSET 0.000000 8.438565 -0.680529 
			CHANNELS 3 Xrotation Zrotation Yrotation
			JOINT neck
			{
				OFFSET 0.000000 10.207942 -0.272212 
				CHANNELS 3 Xrotation Zrotation Yrotation
				JOINT head
				{
					OFFSET 0.000000 3.130431 0.000000 
					CHANNELS 3 Xrotation Zrotation Yrotation
					End Site
					{
						OFFSET 0.000000 3.130435 0.000000 
					}
				}
			}
			JOINT lCollar
			{
				OFFSET 3.470700 6.669187 -0.816635 
				CHANNELS 3 Yrotation Zrotation Xrotation
				JOINT lShldr
				{
					OFFSET 3.198488 0.000000 0.000000 
					CHANNELS 3 Zrotation Yrotation Xrotation
					JOINT lForeArm
					{
						OFFSET 10.139888 0.000000 0.000000 
						CHANNELS 3 Yrotation Zrotation Xrotation
						JOINT lHand
						{
							OFFSET 8.370511 0.000000 0.000000 
							CHANNELS 3 Zrotation Yrotation Xrotation
							End Site
							{
								OFFSET 4.083176 0.000000 0.000000 
							}
						}
					}
				}
			}
			JOINT rCollar
			{
				OFFSET -3.470700 6.669187 -0.816635 
				CHANNELS 3 Yrotation Zrotation Xrotation
				JOINT rShldr
				{
					OFFSET -3.198488 0.000000 0.000000 
					CHANNELS 3 Zrotation Yrotation Xrotation
					JOINT rForeArm
					{
						OFFSET -10.139888 0.000000 0.000000 
						CHANNELS 3 Yrotation Zrotation Xrotation
						JOINT rHand
						{
							OFFSET -8.370511 0.000000 0.000000 
							CHANNELS 3 Zrotation Yrotation Xrotation
							End Site
							{
								OFFSET -4.083176 0.000000 0.000000 
							}
						}
					}
				}
			}
		}
	}
	JOINT lThigh
	{
		OFFSET 5.308129 -1.633274 1.361059 
		CHANNELS 3 Xrotation Zrotation Yrotation
		JOINT lShin
		{
			OFFSET -2.041588 -20.007561 0.000000 
			CHANNELS 3 Xrotation Zrotation Yrotation
			JOINT lFoot
			{
				OFFSET 0.000000 -19.190928 -1.224953 
				CHANNELS 3 Xrotation Yrotation Zrotation
				End Site
				{
					OFFSET 0.000000 -2.449906 4.627600 
				}
			}
		}
	}
	JOINT rThigh
	{
		OFFSET -5.308129 -1.633274 1.361059 
		CHANNELS 3 Xrotation Zrotation Yrotation
		JOINT rShin
		{
			OFFSET 2.041588 -20.007561 0.000000 
			CHANNELS 3 Xrotation Zrotation Yrotation
			JOINT rFoot
			{
				OFFSET 0.000000 -19.190928 -1.224953 
				CHANNELS 3 Xrotation Yrotation Zrotation
				End Site
				{
					OFFSET 0.000000 -2.449906 4.627600 
				}
			}
		}
	}
}
MOTION
Frames: 8
Frame Time: 0.033333
25.952639 21.383131 25.952639 1.450676 -36.114300 -16.072582 51.965858 -7.343278 3.257805 -9.696530 0.661775 7.451526 -10.958717 -1.452095 -4.848488 10.524219 0.508720 -0.030344 -9.728437 -2.232821 -25.000000 -43.823788 -36.349464 39.563087 -29.191307 -2.236379 2.281783 34.168453 -0.814796 14.529393 0.978472 3.293686 -25.000000 67.580864 6.563826 27.122896 47.508804 2.662112 1.997366 80.889481 24.064125 130.420059 -5.835816 -4.474556 38.804348 77.025604 2.052857 -4.672122 9.302534 8.026144 23.570696 -39.543865 -13.807208 8.616306 95.130905 -3.397895 4.468030 -38.149975 -21.295441 0.465194 
26.996469 20.883392 26.996469 2.478889 -38.001316 -17.445736 54.889606 -9.718704 5.575786 -10.633789 0.798433 7.444773 -11.513521 -2.836310 -5.699854 10.524219 0.508720 -0.030344 -10.851449 -3.301168 -25.000000 -40.438023 -38.468685 41.854412 -21.921131 -2.041341 2.342654 37.275009 -0.841984 13.891892 -0.098168 2.097255 -25.000000 69.459801 6.839931 26.438913 44.196182 2.585041 2.062730 82.417694 21.666677 128.117874 -5.398288 -3.800249 38.135365 74.900169 1.915532 -4.678804 20.923697 10.992929 21.389566 -37.292583 -12.734091 11.267487 92.770378 -3.222512 4.511836 -37.489399 -22.631296 -0.906913 
27.968098 20.344841 27.968096 3.715588 -39.618504 -18.849173 57.502583 -12.001128 7.617323 -11.492969 0.916160 7.431767 -12.131699 -4.153586 -6.227224 10.524219 0.508720 -0.030344 -11.625804 -4.333609 -25.000000 -37.568096 -40.551685 44.263943 -14.919795 -1.853740 2.392033 40.284752 -0.843152 13.303368 -0.866198 0.921341 -25.000000 71.259064 6.819098 25.677029 40.805904 2.509592 2.114330 83.952118 19.435749 125.878258 -4.865463 -3.276684 37.497822 72.747833 1.740989 -4.656926 31.808132 13.255052 19.083784 -34.892769 -11.747453 13.876801 90.292252 -3.056579 4.559736 -36.674137 -23.993538 -2.310214 
28.784374 19.817389 28.784369 5.162682 -40.958885 -20.286175 59.777550 -14.092910 9.346332 -12.264311 1.014680 7.423784 -12.841875 -5.338346 -6.364518 10.524219 0.508720 -0.030344 -11.977133 -5.267432 -25.000000 -35.375401 -42.533195 46.820656 -8.374360 -1.667458 2.408007 43.122627 -0.826341 12.824625 -1.251437 -0.192263 -25.000000 73.021431 6.447820 24.808281 37.437878 2.429582 2.167019 85.415131 17.461582 123.814362 -4.195734 -2.942214 36.915363 70.544319 1.603647 -4.657616 41.656311 14.899613 16.864250 -32.395596 -10.859172 16.480614 87.708153 -2.870599 4.591785 -35.677776 -25.419222 -3.717280 
29.467321 19.423248 29.467321 6.535689 -41.855289 -21.495457 61.658741 -15.858570 10.686307 -12.879448 1.093634 7.423354 -13.704996 -6.334352 -6.031188 10.524219 0.508720 -0.030344 -11.805188 -6.119227 -25.000000 -34.095356 -44.279079 49.543026 -2.549441 -1.510002 2.407800 45.658020 -0.798916 12.528106 -1.167454 -1.220184 -25.000000 74.769691 5.690253 23.847811 34.219803 2.350204 2.215995 86.704338 15.826653 122.006210 -3.374344 -2.864403 36.391548 68.382889 1.429471 -4.610762 50.010330 16.060314 14.920678 -29.800993 -10.117070 19.035997 85.046593 -2.675574 4.617720 -34.486099 -26.843708 -5.062072 
29.689339 19.095625 29.689335 7.106119 -42.133636 -21.960613 62.481182 -16.608513 11.213405 -13.133326 1.123329 7.432071 -14.207715 -6.755416 -5.658902 10.524219 0.508720 -0.030344 -11.493675 -6.503976 -25.000000 -33.829746 -45.072189 51.035336 0.119360 -1.435247 2.399651 46.839363 -0.792087 12.449940 -0.921505 -1.709690 -25.000000 77.346909 4.628367 23.802334 30.247837 2.253771 2.259486 87.600266 14.759323 120.780952 -2.397531 -3.108546 35.966057 66.191010 1.273284 -4.572798 56.514816 16.822313 13.365307 -27.124884 -9.521786 21.533575 82.297531 -2.469397 4.645967 -33.079285 -28.261036 -6.264445 
29.683794 18.534912 29.683794 7.451279 -42.258072 -22.239805 62.838753 -16.936226 11.448689 -13.240745 1.133288 7.431211 -14.475329 -6.937710 -5.430204 10.524219 0.508720 -0.030344 -10.265163 -6.642598 -25.000000 -36.076595 -44.559116 54.088425 -0.118260 -1.439638 2.396765 48.196667 -0.998938 12.364375 -0.755083 -1.938839 -25.000000 81.058678 3.414698 23.908575 25.467012 2.130149 2.307707 88.035965 14.265124 120.194267 -1.003347 -3.887324 35.584675 63.891220 1.107249 -4.549268 60.114136 17.201006 12.479424 -24.389101 -9.092319 23.926725 79.460831 -2.263471 4.667353 -31.432339 -29.643698 -7.306149 
29.311831 17.707548 29.311827 8.547668 -42.425293 -23.089533 63.730461 -17.767500 12.028773 -13.523905 1.172762 7.459707 -15.376914 -7.445559 -4.480726 10.524219 0.508720 -0.030344 -6.788364 -7.140033 -25.000000 -42.146385 -45.350883 60.415756 -0.357377 -1.442960 2.403700 49.177170 -1.445361 12.190248 -0.006890 -2.667080 -25.000000 84.695625 1.922272 22.227907 21.173321 2.019349 2.341057 88.186913 14.079265 119.987862 0.929269 -5.252728 35.193981 61.348335 0.928231 -4.497507 60.505627 17.221220 12.342356 -21.614086 -8.828815 26.173317 76.576149 -2.058451 4.663454 -29.584166 -31.005220 -8.129548 
